<?xml version="1.0" standalone="no"?>
<!DOCTYPE svg PUBLIC "-//W3C//DTD SVG 20010904//EN"
 "http://www.w3.org/TR/2001/REC-SVG-20010904/DTD/svg10.dtd">
<svg version="1.0" xmlns="http://www.w3.org/2000/svg"
 width="720.000000pt" height="720.000000pt" viewBox="0 0 720.000000 720.000000"
 preserveAspectRatio="xMidYMid meet">
<metadata>
Created by potrace 1.14, written by Peter Selinger 2001-2017
</metadata>
<g transform="translate(0.000000,720.000000) scale(0.100000,-0.100000)"
fill="#000000" stroke="none">
<path d="M3415 7182 c-1 -2 -29 -5 -61 -8 -161 -13 -299 -29 -299 -34 0 -1
-16 -3 -35 -5 -49 -5 -94 -14 -169 -31 -35 -8 -66 -12 -69 -9 -3 3 -11 0 -17
-5 -7 -6 -24 -11 -39 -12 -14 -1 -26 -5 -26 -8 0 -3 -8 -7 -17 -8 -50 -6 -58
-8 -64 -14 -3 -5 -19 -10 -36 -11 -16 -2 -44 -11 -62 -20 -19 -9 -29 -11 -24
-4 4 7 0 6 -10 -2 -9 -7 -17 -10 -17 -6 0 4 -7 2 -15 -5 -8 -7 -15 -9 -15 -5
0 5 -9 0 -20 -10 -11 -10 -20 -15 -20 -10 0 4 -8 1 -17 -6 -14 -11 -15 -12 -9
-1 5 9 -6 6 -30 -7 -22 -11 -72 -32 -111 -47 -40 -15 -73 -31 -73 -36 0 -5 -4
-7 -9 -4 -10 7 -72 -22 -83 -38 -4 -6 -8 -7 -8 -3 0 9 -177 -77 -190 -92 -10
-12 -50 -31 -65 -31 -8 0 -15 -4 -15 -9 0 -5 -14 -14 -30 -21 -17 -7 -30 -16
-30 -21 0 -5 -5 -9 -12 -9 -13 0 -211 -130 -216 -142 -2 -5 -10 -8 -18 -8 -9
0 -12 -4 -9 -10 3 -5 1 -10 -5 -10 -18 0 -185 -133 -290 -231 -27 -25 -52 -44
-55 -41 -3 3 -5 -3 -5 -13 0 -10 -3 -16 -6 -13 -3 3 -32 -22 -64 -57 -32 -35
-61 -60 -64 -57 -3 3 -6 1 -6 -5 0 -5 -21 -32 -48 -61 -71 -76 -87 -96 -84
-104 1 -5 -2 -8 -7 -8 -4 0 -29 -27 -55 -60 -26 -33 -54 -66 -62 -75 -9 -8
-13 -15 -9 -15 4 0 -1 -7 -10 -16 -23 -23 -140 -200 -205 -309 -30 -49 -58
-93 -63 -96 -5 -3 -9 -9 -8 -12 0 -8 -28 -71 -54 -117 -11 -19 -20 -37 -20
-40 -1 -3 -11 -27 -24 -55 -48 -104 -61 -134 -61 -144 0 -6 -4 -11 -9 -11 -6
0 -8 -9 -6 -20 2 -11 0 -20 -6 -20 -5 0 -9 -6 -9 -13 0 -7 -8 -29 -19 -50 -10
-20 -14 -34 -9 -31 5 3 5 -2 -1 -12 -13 -23 -34 -75 -35 -89 -1 -5 -7 -21 -15
-34 -11 -20 -11 -22 1 -15 10 6 11 5 2 -7 -12 -15 -40 -109 -36 -121 1 -5 -3
-8 -9 -8 -5 0 -7 -4 -4 -10 3 -5 3 -16 -2 -22 -4 -7 -8 -24 -9 -39 -1 -14 -9
-42 -18 -62 -8 -20 -11 -37 -5 -37 5 0 1 -12 -8 -27 -12 -19 -14 -24 -4 -19
10 6 12 5 7 -3 -5 -7 -10 -26 -13 -42 -2 -16 -10 -52 -17 -79 -8 -29 -9 -47
-3 -43 6 4 7 1 1 -8 -4 -8 -9 -30 -10 -50 0 -20 -4 -41 -7 -47 -4 -5 -7 -21
-7 -33 1 -13 -2 -51 -7 -84 -12 -100 -7 -710 6 -710 2 0 4 -27 15 -151 1 -16
5 -35 9 -40 3 -6 8 -32 11 -60 2 -27 11 -68 19 -92 8 -23 10 -39 4 -35 -6 3
-7 1 -3 -6 4 -6 9 -23 12 -37 3 -14 11 -43 18 -63 7 -21 12 -47 11 -59 -1 -12
2 -22 6 -22 4 0 10 -7 13 -16 3 -9 2 -12 -5 -8 -7 4 -7 0 0 -12 17 -32 41
-116 35 -125 -3 -5 -1 -9 4 -9 6 0 13 -16 16 -35 4 -19 11 -35 17 -35 6 0 8
-4 5 -8 -3 -5 5 -35 18 -68 26 -64 38 -98 37 -101 0 -2 12 -27 28 -58 16 -30
25 -53 22 -50 -4 2 14 -39 41 -91 27 -51 45 -94 41 -94 -4 0 -3 -4 3 -8 13 -8
130 -215 126 -221 -2 -2 0 -7 5 -10 15 -10 113 -159 113 -171 0 -6 4 -8 10 -5
5 3 10 2 10 -4 0 -5 23 -40 50 -76 28 -36 50 -70 50 -76 0 -5 7 -9 15 -9 8 0
15 -5 15 -11 0 -11 25 -42 106 -132 19 -21 34 -42 34 -48 0 -5 7 -9 17 -9 9 0
14 -2 11 -6 -6 -6 317 -324 329 -324 2 0 25 -18 51 -39 26 -22 94 -74 152
-115 58 -41 111 -80 118 -86 6 -6 12 -7 12 -3 0 4 4 3 8 -3 6 -10 191 -123
254 -155 14 -8 66 -35 115 -60 48 -25 90 -46 93 -47 3 0 28 -11 55 -24 28 -12
52 -23 55 -23 3 -1 25 -10 50 -21 25 -10 48 -18 53 -16 4 1 7 -3 7 -8 0 -6 6
-10 13 -9 14 2 59 -14 100 -35 15 -8 27 -11 27 -6 0 5 12 3 28 -5 27 -14 104
-39 152 -49 57 -12 116 -29 137 -39 13 -6 26 -8 29 -4 4 3 15 2 25 -3 9 -6 33
-12 51 -15 18 -2 44 -7 58 -10 14 -3 38 -8 54 -11 16 -2 33 -7 38 -10 4 -3 8
1 8 8 0 8 3 9 8 3 4 -6 16 -12 27 -12 11 -1 34 -5 50 -9 37 -9 915 -15 930 -6
5 4 19 7 30 8 11 1 40 5 65 9 51 8 106 15 133 18 9 1 17 4 17 7 0 5 33 10 78
13 6 0 12 4 12 9 0 5 4 6 10 3 5 -3 19 -1 31 6 12 6 19 7 16 2 -5 -8 75 13
133 35 8 3 22 6 30 7 8 1 22 4 30 8 56 21 139 44 144 39 3 -3 6 0 6 6 0 7 8
12 18 12 9 0 30 7 46 15 15 8 32 15 36 15 4 0 25 8 46 17 22 9 41 18 44 18
120 39 550 269 588 314 11 13 12 13 6 1 -8 -16 28 11 54 40 12 13 12 13 6 0
-5 -8 13 3 39 24 26 21 47 35 47 30 0 -4 9 2 20 14 12 12 25 22 31 22 6 0 7 4
4 10 -3 5 0 10 8 10 7 0 22 8 33 17 10 10 58 50 105 90 48 39 93 78 100 85 8
7 27 23 43 36 16 12 26 22 23 22 -4 0 25 29 63 65 38 36 68 65 66 65 -2 0 27
33 65 73 38 39 69 78 69 86 0 8 3 11 6 8 4 -4 40 37 81 91 41 53 79 100 85
103 5 3 9 9 8 13 -1 4 8 19 19 34 34 44 71 102 65 102 -3 0 7 11 21 24 15 14
25 26 24 28 -1 2 22 46 53 98 83 142 221 421 221 448 0 6 4 12 9 12 5 0 6 4 3
10 -3 5 -1 10 4 10 6 0 10 3 9 8 -3 8 41 131 52 147 4 6 6 18 5 28 -2 9 0 17
4 17 6 0 13 20 37 107 6 22 11 37 19 68 4 17 10 34 13 40 5 8 7 19 16 75 1 9
5 20 8 25 3 6 9 28 13 50 4 22 9 51 12 65 3 14 6 30 7 35 1 6 4 15 7 20 2 6 4
27 4 47 0 21 2 38 5 38 6 0 11 39 14 92 0 16 3 28 6 28 3 0 5 18 4 40 0 22 2
40 5 40 3 0 6 45 6 100 0 55 3 100 6 100 9 0 5 333 -4 348 -5 6 -4 12 1 12 6
0 8 8 6 18 -2 9 -5 42 -7 73 -2 31 -7 61 -11 67 -3 6 -2 13 4 17 6 4 7 12 3
18 -5 7 -8 23 -9 37 0 14 -4 43 -8 65 -13 66 -17 98 -18 133 -1 17 -6 32 -11
32 -6 0 -7 3 -4 6 3 4 2 16 -4 27 -8 14 -8 18 0 13 8 -5 8 0 1 19 -9 23 -18
62 -25 105 -1 8 -5 22 -9 31 -4 9 -8 27 -10 40 -3 24 -4 28 -24 88 -6 19 -9
38 -6 42 3 5 0 9 -6 9 -6 0 -10 6 -9 13 2 12 -2 25 -22 75 -5 13 -7 28 -4 33
4 5 1 9 -4 9 -6 0 -10 3 -9 8 0 4 -1 14 -5 22 -24 64 -39 110 -36 112 2 2 -7
18 -21 37 -13 19 -18 31 -11 27 8 -5 7 2 -4 17 -9 14 -18 32 -19 39 -1 7 -30
71 -64 142 -34 71 -62 132 -62 137 0 5 -4 9 -10 9 -5 0 -10 5 -10 10 0 6 -20
44 -45 84 -25 41 -45 80 -45 86 0 6 -4 8 -10 5 -5 -3 -10 3 -10 14 0 12 -4 21
-8 21 -5 0 -17 18 -28 39 -10 22 -22 37 -26 35 -5 -3 -8 4 -8 16 0 12 -4 18
-10 15 -5 -3 -10 -1 -10 4 0 6 0 13 0 16 0 2 -14 19 -30 36 -16 18 -27 36 -24
40 2 4 1 9 -4 11 -4 1 -54 60 -112 131 -57 70 -107 127 -112 127 -4 0 -8 4 -8
10 0 10 -191 205 -265 270 -113 100 -190 163 -211 172 -13 6 -21 15 -18 19 3
5 -1 9 -10 9 -8 0 -16 4 -18 8 -3 9 -107 83 -177 125 -25 16 -57 39 -70 50
-13 12 -21 16 -17 10 4 -7 -20 5 -52 27 -33 21 -86 52 -118 67 -33 15 -61 31
-64 34 -8 10 -93 49 -106 49 -7 0 -14 5 -16 11 -2 5 -10 11 -18 12 -8 1 -34
12 -57 24 -22 12 -44 19 -47 16 -3 -4 -6 0 -6 7 0 7 -3 11 -6 7 -4 -3 -25 3
-48 15 -22 11 -42 20 -43 20 -4 -2 -33 8 -68 23 -16 7 -48 18 -70 25 -22 7
-46 18 -54 24 -12 9 -13 8 -6 -4 8 -13 7 -13 -8 -1 -9 7 -17 10 -17 5 0 -4 -5
-3 -12 4 -7 7 -18 12 -24 12 -7 0 -25 5 -41 11 -15 7 -35 13 -43 14 -41 7 -81
16 -102 24 -13 5 -26 9 -30 10 -5 0 -9 1 -10 2 -7 2 -36 7 -68 13 -19 3 -48 9
-65 14 -16 5 -38 8 -47 6 -10 -1 -18 1 -18 4 0 4 -15 8 -32 10 -69 4 -94 8
-107 17 -10 6 -12 4 -6 -6 7 -11 6 -12 -6 -3 -8 6 -21 11 -29 12 -8 0 -53 4
-100 8 -47 4 -113 8 -147 8 -35 1 -63 4 -63 8 0 8 -21 5 -37 -5 -8 -5 -13 -3
-13 4 0 10 -3 10 -12 1 -6 -6 -18 -8 -27 -4 -21 10 -92 9 -110 -2 -10 -7 -12
-5 -6 5 8 12 6 12 -8 0 -9 -7 -17 -10 -17 -5 0 8 -77 14 -85 6z m8 -266 c4 7
362 11 362 4 0 -1 29 -4 65 -6 36 -1 65 -3 65 -4 0 -1 105 -13 133 -14 12 0
22 -4 22 -7 0 -3 12 -5 27 -3 15 1 32 0 38 -4 5 -4 26 -7 45 -8 19 -1 35 -3
35 -4 0 -2 9 -4 20 -6 41 -7 80 -16 95 -21 8 -3 24 -7 35 -9 11 -1 47 -10 80
-19 33 -9 74 -20 90 -25 54 -14 170 -52 180 -58 6 -4 15 -7 20 -7 6 0 28 -8
49 -18 22 -10 50 -20 62 -23 12 -3 52 -21 89 -40 37 -18 72 -31 76 -28 5 3 9
1 9 -5 0 -6 12 -14 28 -17 15 -4 38 -14 52 -24 14 -9 54 -31 90 -50 36 -18 88
-47 115 -65 28 -17 67 -42 88 -54 21 -13 44 -29 52 -37 8 -8 18 -15 22 -15 24
0 304 -223 410 -325 18 -17 35 -29 37 -26 3 2 10 -6 16 -20 6 -13 24 -32 40
-43 16 -11 28 -21 26 -22 -1 -1 22 -29 52 -60 66 -71 212 -247 238 -288 10
-16 29 -41 41 -55 13 -14 23 -28 23 -31 0 -3 9 -16 20 -29 11 -13 20 -29 20
-36 0 -8 9 -19 19 -26 10 -6 17 -18 14 -25 -3 -7 0 -13 5 -13 6 0 17 -12 25
-27 42 -81 62 -113 70 -113 5 0 7 -7 3 -15 -3 -8 -2 -15 3 -15 4 0 32 -51 61
-112 30 -62 59 -116 65 -120 5 -4 7 -8 4 -8 -4 0 15 -54 42 -121 27 -66 47
-125 43 -130 -3 -5 -1 -9 4 -9 12 0 31 -53 34 -95 1 -11 5 -25 10 -31 11 -15
41 -124 40 -146 0 -10 2 -18 6 -18 4 0 9 -11 10 -26 1 -14 6 -33 10 -42 5 -9
7 -29 6 -45 -2 -15 1 -25 6 -22 5 3 8 -7 6 -22 -1 -16 1 -32 5 -38 4 -5 10
-32 13 -60 3 -27 9 -66 13 -85 3 -19 7 -54 7 -77 1 -24 3 -43 6 -43 4 0 6 -17
5 -37 0 -21 2 -42 5 -48 7 -14 8 -465 1 -469 -3 -2 -6 -36 -6 -75 0 -39 -2
-71 -5 -71 -3 0 -6 -17 -6 -38 -1 -36 -8 -93 -18 -142 -3 -14 -7 -41 -11 -60
-11 -67 -13 -75 -23 -117 -5 -24 -8 -43 -5 -43 3 0 0 -7 -7 -15 -7 -8 -10 -15
-7 -15 3 0 0 -20 -7 -44 -8 -25 -12 -47 -9 -50 3 -2 -3 -16 -12 -30 -10 -14
-15 -26 -12 -26 4 0 0 -18 -8 -41 -8 -23 -13 -45 -10 -49 3 -5 2 -10 -3 -12
-4 -1 -23 -46 -42 -98 -18 -52 -36 -97 -39 -100 -3 -3 -6 -9 -7 -15 -2 -22
-19 -63 -65 -157 -27 -54 -49 -102 -50 -106 -4 -23 -190 -332 -200 -332 -5 0
-8 -3 -7 -7 6 -16 -187 -273 -204 -273 -5 0 -7 7 -4 16 4 9 2 13 -5 8 -7 -4
-10 -1 -7 7 3 8 1 23 -5 34 -6 11 -12 27 -14 35 -8 51 -111 227 -190 325 -71
88 -95 116 -133 152 -25 24 -51 43 -58 43 -7 0 -11 3 -9 8 3 4 -12 8 -34 9
-24 2 -39 -2 -39 -9 0 -6 -3 -8 -7 -5 -3 4 -12 2 -20 -4 -7 -6 -13 -8 -13 -3
0 5 -4 4 -8 -2 -4 -5 -42 -32 -84 -58 -65 -40 -80 -46 -90 -34 -65 71 -62 65
-43 95 22 33 36 101 24 109 -5 3 -7 10 -4 15 4 5 1 9 -4 9 -6 0 -11 5 -11 11
0 6 -12 26 -27 43 -16 18 -44 52 -63 76 -19 24 -41 49 -48 57 -7 7 -11 13 -9
13 3 0 -5 12 -18 27 -112 131 -165 199 -165 210 0 8 -4 11 -10 8 -9 -5 -15 15
-11 38 0 4 -3 7 -8 7 -5 0 -22 29 -39 64 -17 35 -35 67 -41 71 -6 3 -9 10 -7
14 3 4 -4 18 -15 29 -11 12 -17 22 -13 22 3 0 1 7 -6 15 -7 8 -9 15 -4 15 5 0
4 4 -2 8 -6 4 -26 32 -43 62 -114 195 -224 364 -269 411 -23 26 -42 51 -40 55
4 16 -21 74 -32 74 -6 0 -9 4 -5 9 4 8 -14 35 -54 76 -22 23 -41 35 -54 35 -7
0 -18 5 -25 12 -9 9 -12 9 -12 -1 0 -7 -4 -10 -8 -7 -9 6 -55 16 -92 21 -14 2
-25 4 -25 5 0 1 -11 3 -25 4 -28 3 -99 14 -145 23 -16 3 -37 5 -45 5 -8 1 -21
5 -27 11 -9 6 -13 6 -13 -1 0 -6 -6 -9 -12 -7 -8 3 -13 24 -13 53 0 42 3 47
22 48 13 1 28 6 35 11 7 5 23 8 36 7 12 0 22 3 22 7 0 5 8 9 18 9 26 0 102 65
138 119 35 52 67 121 59 129 -2 2 0 14 6 25 8 15 8 18 -1 12 -9 -6 -9 -3 -2
12 6 10 9 33 8 51 -1 17 2 32 7 32 4 0 5 4 2 10 -3 5 13 30 36 55 23 25 38 45
35 45 -4 0 0 7 8 16 9 8 14 20 10 25 -3 5 1 12 10 15 8 3 18 19 21 35 4 16 11
29 16 29 6 0 7 5 4 10 -3 6 -2 10 4 10 6 0 8 7 5 15 -4 8 -1 15 5 15 6 0 8 6
5 14 -3 8 -1 17 5 21 6 3 11 17 11 30 0 13 4 26 9 30 5 3 8 16 5 29 -2 13 3
29 11 36 8 7 15 19 15 27 0 7 14 40 30 73 17 33 30 65 30 73 0 7 5 18 12 25 6
6 13 17 14 24 2 7 6 27 9 43 4 17 8 71 9 121 2 51 7 97 10 103 4 6 2 11 -5 11
-8 0 -8 4 1 15 9 10 9 15 1 15 -6 0 -10 3 -9 8 5 19 -15 72 -25 65 -6 -4 -8 0
-4 10 3 10 2 17 -3 17 -6 0 -10 7 -10 16 0 8 -5 25 -12 37 -7 12 -13 31 -15
42 -29 189 -61 247 -183 342 -45 34 -81 66 -82 70 -1 21 -40 83 -60 97 -12 9
-19 16 -14 16 5 0 -4 10 -20 22 -16 13 -30 26 -32 30 -2 5 -10 8 -17 8 -15 0
-25 21 -31 64 -6 52 -15 64 -55 84 -44 22 -75 19 -89 -9 -10 -18 -11 -18 -43
1 -18 11 -50 19 -74 18 -48 0 -67 14 -71 56 -2 16 -9 41 -16 55 -7 14 -13 38
-12 54 1 15 -1 27 -4 27 -4 0 -16 9 -28 20 -12 12 -22 16 -22 10 0 -6 -5 -8
-12 -4 -6 4 -29 6 -52 6 -32 -2 -47 -9 -74 -37 -19 -19 -39 -35 -46 -36 -6 0
-46 -2 -88 -2 -44 -1 -82 -7 -89 -14 -9 -9 -17 -5 -33 20 -18 25 -29 32 -54
31 -18 0 -32 3 -32 7 0 10 -122 -32 -132 -46 -4 -5 -8 -6 -8 -1 0 5 -11 -3
-25 -18 -20 -22 -28 -25 -44 -16 -13 7 -22 7 -26 0 -4 -7 -13 -7 -26 0 -12 7
-19 7 -19 1 0 -6 -6 -8 -14 -5 -16 6 -58 -34 -50 -48 3 -5 0 -16 -8 -25 -11
-14 -11 -16 1 -8 9 5 8 -2 -5 -24 -21 -35 -90 -67 -122 -57 -11 4 -23 2 -26
-3 -4 -5 -15 -8 -26 -6 -11 2 -20 -1 -20 -7 0 -6 -3 -8 -6 -5 -10 10 -36 -30
-73 -113 -19 -41 -45 -96 -58 -122 -13 -27 -22 -48 -18 -48 3 0 -10 -17 -30
-37 -41 -43 -66 -81 -43 -67 10 6 9 3 -2 -12 -28 -37 -80 -94 -80 -88 0 12
-36 -41 -63 -91 -21 -39 -26 -61 -24 -102 2 -29 0 -53 -3 -53 -8 0 -5 -89 4
-97 3 -3 1 -12 -5 -19 -7 -8 -7 -14 1 -19 7 -4 3 -14 -11 -26 -12 -10 -19 -19
-15 -19 3 0 0 -10 -8 -22 -7 -13 -12 -31 -11 -40 2 -10 -2 -18 -8 -18 -8 0 -8
-3 0 -11 7 -7 8 -20 4 -33 -6 -19 -6 -43 2 -126 1 -14 9 -31 17 -38 12 -11 12
-12 1 -6 -17 9 19 -46 45 -66 17 -15 37 -55 38 -80 1 -8 14 -36 29 -62 24 -41
33 -49 68 -54 30 -5 41 -12 45 -30 3 -13 9 -22 13 -19 9 5 10 2 16 -120 6
-148 6 -255 -1 -267 -4 -7 -2 -8 4 -4 8 5 10 -2 6 -23 -4 -21 -1 -39 11 -57 9
-15 11 -23 5 -19 -7 4 -4 -5 7 -21 11 -16 33 -49 49 -73 15 -24 34 -45 41 -48
7 -3 10 -9 7 -14 -3 -5 2 -9 10 -9 8 0 21 -6 28 -13 7 -8 31 -20 53 -27 22 -7
45 -15 50 -19 6 -3 19 -7 30 -8 23 -4 46 -23 27 -23 -10 0 -10 -5 -2 -20 8
-15 8 -20 -2 -20 -9 0 -9 -3 -1 -11 8 -8 9 -19 2 -38 -6 -14 -10 -27 -10 -28
5 -18 -1 -24 -14 -13 -8 7 -15 9 -15 4 0 -5 -21 -9 -48 -9 -26 0 -51 -2 -57
-5 -5 -2 -23 -5 -40 -6 -16 -2 -43 -5 -60 -9 -16 -4 -36 -6 -42 -6 -7 1 -19 1
-25 2 -16 1 -55 -8 -67 -16 -5 -3 -12 -1 -16 5 -4 7 -14 6 -28 -2 -12 -6 -23
-11 -24 -10 -20 13 -103 -55 -103 -84 0 -7 -7 -20 -16 -28 -8 -9 -12 -16 -9
-16 4 0 0 -11 -9 -25 -12 -18 -13 -25 -4 -25 9 0 10 -2 2 -8 -6 -4 -15 -23
-19 -42 -4 -19 -12 -41 -19 -49 -8 -11 -8 -13 2 -7 17 10 15 1 -4 -18 -9 -10
-11 -16 -4 -16 7 0 -16 -30 -49 -66 -34 -37 -61 -72 -61 -79 0 -6 -9 -20 -19
-29 -11 -10 -17 -24 -14 -32 3 -8 -1 -14 -8 -14 -7 0 -10 -3 -6 -6 3 -3 -1
-24 -9 -46 -19 -54 -26 -87 -28 -120 0 -16 -5 -28 -9 -28 -5 0 -5 -5 -1 -12 4
-6 9 -37 11 -67 2 -31 6 -69 9 -86 3 -16 6 -36 6 -42 1 -7 5 -13 10 -13 5 0 6
-4 3 -10 -3 -5 -3 -15 1 -22 4 -7 9 -21 10 -33 1 -11 5 -33 9 -50 11 -46 15
-134 6 -139 -4 -3 -7 -21 -6 -41 0 -19 -2 -35 -6 -35 -4 0 -5 -14 -4 -30 1
-17 0 -32 -4 -35 -4 -2 -8 -23 -10 -46 -1 -23 -7 -51 -12 -62 -9 -15 -8 -18 2
-12 8 5 10 4 5 -4 -8 -12 -16 -48 -21 -96 -2 -16 -7 -50 -10 -75 -4 -25 -8
-56 -10 -70 -2 -14 -4 -25 -5 -25 -1 0 -3 -16 -5 -35 -3 -19 -7 -53 -11 -75
-3 -22 -7 -55 -7 -72 -1 -18 -5 -33 -9 -33 -3 0 -5 -14 -4 -31 1 -16 -1 -32
-5 -35 -4 -2 -6 -18 -5 -35 1 -16 0 -32 -3 -34 -5 -3 -6 -46 -2 -152 1 -13 4
-22 9 -21 10 3 72 -31 73 -40 0 -4 2 -68 2 -143 2 -133 10 -169 39 -169 6 0
23 -9 39 -21 16 -11 29 -18 29 -14 0 3 10 0 23 -7 12 -7 25 -11 30 -10 4 1
-16 -29 -45 -67 -28 -39 -53 -80 -55 -93 -2 -13 -6 -30 -10 -38 -7 -18 -12
-38 -16 -65 -2 -12 -7 -26 -11 -33 -4 -7 -5 -20 -2 -28 4 -10 -24 0 -77 28
-45 24 -86 46 -92 50 -5 5 -64 44 -130 87 -66 44 -131 89 -145 100 -14 11 -31
21 -39 21 -8 0 -11 3 -8 7 4 3 -5 15 -21 25 -59 40 -95 68 -86 68 5 0 -3 8
-18 18 -15 10 -53 42 -85 72 -32 30 -73 67 -90 81 -18 15 -29 30 -26 33 4 3
-2 6 -12 6 -10 0 -16 2 -13 5 3 3 -25 37 -62 75 -37 39 -66 70 -64 70 2 0 -9
14 -24 31 -15 17 -34 39 -42 48 -8 9 -37 46 -65 82 -27 35 -54 67 -60 71 -6 5
-6 8 0 8 6 0 5 3 -1 8 -11 7 -124 169 -124 177 0 2 -13 23 -29 47 -24 37 -65
111 -132 238 -38 73 -98 209 -134 305 -20 55 -42 106 -48 114 -10 12 -9 13 3
6 13 -8 13 -6 2 8 -8 9 -11 21 -7 27 3 5 2 10 -3 10 -7 0 -34 82 -38 115 0 6
-4 17 -7 25 -6 15 -25 85 -35 130 -3 14 -6 35 -6 48 -1 12 -5 22 -10 22 -5 0
-7 2 -4 6 3 3 2 22 -3 42 -10 39 -19 93 -22 127 -1 11 -6 23 -12 27 -6 5 -5 8
3 8 7 0 10 4 7 10 -11 17 -22 99 -29 221 -2 26 -6 51 -10 58 -4 6 -2 11 4 11
7 0 8 7 3 18 -5 9 -7 91 -6 182 3 165 5 197 18 320 4 36 8 77 9 93 0 15 4 27
8 27 4 0 5 6 2 13 -3 8 0 26 5 40 8 19 7 27 0 27 -8 0 -8 4 0 14 7 8 11 20 10
28 -2 7 3 31 9 52 6 22 9 43 6 48 -3 4 0 8 6 8 6 0 8 5 5 10 -4 6 -1 17 5 25
10 12 10 15 0 15 -9 0 -9 4 -2 13 6 7 13 24 15 37 12 64 105 361 116 370 3 3
8 14 9 25 2 11 9 26 15 34 9 11 9 13 1 8 -7 -4 -1 15 12 41 13 26 47 96 74
157 28 60 57 113 63 117 7 4 8 8 3 8 -5 0 -3 7 4 15 7 8 9 15 4 15 -5 0 -4 4
2 8 6 4 25 34 44 67 18 33 48 82 67 109 19 26 29 45 21 41 -7 -3 -4 1 6 9 11
9 16 16 10 16 -5 0 -4 4 2 8 6 4 31 37 56 74 25 37 48 64 52 61 3 -4 6 -1 6 6
0 7 27 47 60 88 33 42 60 80 60 85 0 5 5 6 10 3 6 -3 10 -2 10 3 0 5 10 20 23
34 12 13 41 45 64 70 23 25 44 43 47 40 3 -3 6 1 6 9 0 15 42 58 91 95 16 11
27 23 25 25 -2 2 39 40 91 84 53 44 102 86 109 93 8 7 14 11 14 8 0 -3 12 7
28 21 15 14 53 43 84 63 31 21 54 40 51 44 -4 3 0 6 7 6 7 0 28 11 47 26 18
14 33 21 33 17 0 -4 4 -3 8 3 11 16 153 101 282 167 63 33 121 64 128 69 6 6
12 8 12 4 0 -4 17 2 39 13 21 11 41 17 45 14 3 -4 6 -2 6 4 0 6 10 14 23 18
99 32 202 71 208 78 3 5 9 8 13 7 16 -3 76 13 76 21 0 5 7 6 15 3 8 -4 15 -1
15 6 0 6 4 9 8 6 7 -4 91 15 132 31 8 3 26 7 40 7 14 1 31 5 38 10 7 4 16 6
19 3 3 -3 17 -1 32 5 14 6 42 12 61 14 19 3 48 9 63 14 19 6 26 6 21 -1 -4 -7
2 -7 16 1 12 6 28 9 36 6 8 -3 14 -2 14 3 0 5 8 8 18 8 9 -1 51 3 92 8 41 5
94 8 118 8 25 0 42 4 42 11 0 6 4 5 9 -3 5 -7 11 -9 14 -5z m1452 -5121 c24
-27 50 -46 65 -48 14 -1 28 -5 31 -9 3 -5 29 4 57 19 42 21 55 24 65 14 13
-13 17 -92 5 -101 -4 -3 -1 -18 7 -34 8 -15 14 -30 13 -34 -6 -32 47 -145 86
-184 43 -42 103 -87 91 -69 -4 8 7 3 26 -11 19 -14 63 -37 99 -51 90 -36 120
-51 120 -60 0 -5 5 -5 11 -1 6 3 15 1 19 -6 4 -6 19 -13 34 -13 14 -1 26 -4
26 -7 0 -9 84 -13 135 -7 31 4 167 66 173 80 2 4 8 5 13 1 5 -3 9 0 9 6 0 6 4
9 8 6 11 -7 82 42 82 56 0 6 3 8 7 5 3 -4 12 1 19 11 7 9 15 15 18 12 7 -7
-156 -174 -259 -265 -43 -38 -90 -81 -103 -95 -14 -14 -22 -18 -18 -10 4 8 -1
6 -11 -6 -25 -28 -153 -127 -153 -118 0 4 -11 -5 -25 -20 -14 -15 -25 -24 -25
-21 0 7 -71 -45 -82 -60 -5 -7 -8 -7 -8 0 0 6 -7 1 -15 -9 -8 -11 -15 -16 -15
-11 0 4 -8 1 -17 -7 -22 -19 -252 -148 -258 -145 -2 1 -13 -6 -25 -15 -11 -10
-20 -16 -20 -13 0 6 -97 -40 -117 -56 -15 -12 -16 -12 -8 1 7 12 6 13 -6 3 -8
-7 -51 -26 -94 -43 -44 -17 -89 -35 -100 -39 -64 -27 -75 -30 -75 -21 0 4 6
15 13 22 21 24 34 52 31 71 -1 9 1 17 4 17 4 0 8 10 9 23 2 12 4 33 5 47 2 14
8 29 13 33 6 6 5 10 -4 14 -11 5 -11 7 0 14 10 6 11 9 2 9 -7 0 -13 5 -13 11
0 5 4 8 9 5 11 -7 9 13 -2 32 -5 6 -4 12 2 12 6 0 6 11 1 30 -5 17 -5 30 -1
30 3 0 7 9 7 19 0 11 -4 17 -8 14 -5 -2 -7 7 -4 21 3 14 0 26 -5 26 -6 0 -8 4
-5 8 3 4 0 26 -5 48 -6 21 -11 46 -12 54 -1 8 -4 17 -7 20 -3 3 -11 16 -18 29
-11 19 -11 22 0 16 7 -5 -2 8 -21 28 -32 34 -36 62 -6 50 8 -3 15 -1 15 3 0 5
14 10 31 11 17 1 38 8 47 15 13 11 14 11 7 -1 -5 -9 -4 -12 3 -7 6 4 10 31 8
64 -1 31 2 65 6 75 6 11 5 17 -3 17 -9 0 -9 3 0 14 8 10 9 16 1 21 -7 4 -7 12
0 26 8 14 7 19 -1 19 -9 0 -9 3 0 14 8 10 9 16 1 21 -7 4 -7 12 0 25 8 15 6
21 -7 29 -10 6 -13 11 -8 11 6 0 4 4 -4 9 -10 6 -1 11 28 16 22 4 41 11 41 16
0 6 4 8 9 5 5 -3 14 1 21 9 10 12 10 15 0 15 -10 0 -10 3 0 15 9 11 9 15 1 15
-9 0 -9 5 -1 20 6 11 7 20 2 20 -4 0 -7 15 -7 33 1 17 -2 49 -6 69 -3 21 -2
35 2 32 5 -2 2 13 -6 35 -12 36 -11 51 4 51 3 0 24 -20 46 -45z m1295 -349 c0
-3 -4 -8 -10 -11 -5 -3 -10 -1 -10 4 0 6 5 11 10 11 6 0 10 -2 10 -4z m-2633
-1199 c2 -3 -17 -5 -42 -5 -25 -1 -45 2 -45 6 0 8 79 6 87 -1z m169 1 c3 -3
-31 -6 -75 -7 -45 -1 -81 2 -81 6 0 9 147 9 156 1z m59 2 c-3 -5 -12 -10 -18
-10 -7 0 -6 4 3 10 19 12 23 12 15 0z"/>
</g>
</svg>
